<?xml version="1.0" standalone="no"?>
<!DOCTYPE svg PUBLIC "-//W3C//DTD SVG 20010904//EN"
 "http://www.w3.org/TR/2001/REC-SVG-20010904/DTD/svg10.dtd">
<svg version="1.0" xmlns="http://www.w3.org/2000/svg"
 width="300.000000pt" height="168.000000pt" viewBox="0 0 300.000000 168.000000"
 preserveAspectRatio="xMidYMid meet">

<g transform="translate(0.000000,168.000000) scale(0.100000,-0.100000)"
fill="#000000" stroke="none">
<path d="M1515 1656 c-120 -38 -182 -111 -192 -225 -4 -45 1 -75 26 -149 36
-107 38 -145 12 -188 -25 -40 -80 -81 -85 -62 -2 7 -9 36 -15 63 -29 121 -88
184 -175 186 -28 1 -60 0 -71 -1 -30 -2 -84 -44 -114 -87 -36 -52 -73 -55 -90
-7 -29 80 -94 124 -185 124 -91 0 -167 -69 -201 -183 -43 -144 12 -322 111
-363 41 -17 116 -18 161 -2 32 12 33 14 33 65 0 28 -7 78 -15 110 -8 31 -15
79 -15 105 0 45 2 49 41 73 64 41 77 42 37 3 -21 -19 -38 -44 -38 -54 1 -13 6
-8 15 13 9 22 29 40 59 55 25 12 48 19 51 16 10 -10 -6 -37 -26 -43 -10 -4
-19 -11 -19 -18 0 -8 3 -8 12 1 22 22 24 13 14 -56 -11 -78 11 -199 43 -242
18 -23 18 -26 3 -55 -14 -28 -25 -147 -11 -123 9 15 21 -56 14 -89 -5 -27 -5
-27 5 -4 15 34 21 21 10 -20 -6 -18 -11 -59 -11 -89 -1 -44 -3 -49 -8 -25 -5
22 -9 8 -14 -56 -4 -47 -16 -112 -27 -144 -28 -82 -26 -97 10 -55 l30 35 -16
-48 c-19 -57 -50 -81 -90 -71 -36 8 -64 32 -58 48 3 7 0 23 -6 37 -8 19 -10
12 -7 -39 4 -72 12 -82 70 -82 50 0 176 54 226 96 l40 34 36 -65 c20 -36 42
-68 48 -72 9 -6 -30 70 -67 129 -8 13 -5 27 11 60 35 72 46 118 41 176 -4 47
-1 64 24 111 40 77 51 87 71 66 39 -39 49 -194 21 -330 -9 -42 -13 -79 -10
-82 3 -4 6 2 6 12 0 16 4 14 30 -10 16 -16 30 -36 30 -44 -1 -14 -2 -14 -13
-1 -7 8 -19 16 -27 18 -10 1 -9 -2 4 -13 11 -8 15 -15 9 -15 -5 0 -18 9 -29
21 l-18 20 -8 -20 c-8 -23 -1 -51 13 -51 4 0 6 6 4 13 -4 9 10 12 51 11 l55
-2 -27 29 -28 29 25 0 c57 0 89 25 49 38 -8 3 -10 0 -5 -8 6 -10 4 -12 -8 -7
-10 3 -17 2 -17 -4 0 -6 -12 -9 -27 -7 -16 2 -27 7 -25 11 2 5 -5 15 -15 24
-12 9 -14 16 -7 19 7 3 9 15 6 27 -5 19 -1 18 34 -11 21 -18 43 -32 47 -32 5
0 -1 9 -14 20 -13 10 -20 19 -15 20 4 0 -2 9 -15 20 -15 12 -20 22 -14 27 6 5
11 22 10 40 0 23 3 29 12 21 7 -5 26 -7 44 -3 24 5 30 4 24 -5 -5 -8 -4 -11 3
-6 12 7 82 -23 82 -36 0 -4 -7 -8 -15 -8 -8 0 -15 -6 -15 -14 0 -8 -9 -18 -21
-21 -11 -4 -18 -9 -16 -12 3 -2 38 7 78 22 39 14 88 25 108 24 20 -1 57 5 82
13 l46 15 12 -56 c9 -41 10 -64 2 -84 -13 -34 -14 -50 -2 -43 28 18 13 196
-17 196 -9 0 -2 14 18 36 31 36 32 38 27 118 -8 137 -44 256 -87 294 -11 10
-11 12 -1 6 9 -5 12 -3 7 5 -4 6 -12 8 -18 5 -6 -4 -14 0 -19 7 -6 9 -9 10 -9
2 0 -6 5 -15 10 -18 6 -4 8 -11 5 -16 -4 -5 1 -9 9 -9 18 0 53 -63 61 -111 3
-18 8 -36 11 -41 3 -4 0 -8 -6 -8 -7 0 -5 -6 4 -15 20 -20 18 -175 -2 -168 -8
4 -10 0 -5 -13 5 -13 3 -15 -8 -9 -12 8 -12 6 0 -8 12 -15 11 -17 -6 -17 -11
0 -28 -9 -37 -19 -10 -11 -31 -23 -47 -26 -16 -4 -29 -11 -29 -17 0 -10 -16
-9 -84 6 -88 20 -175 122 -192 224 -3 22 -11 39 -18 39 -38 -1 -56 4 -50 14 3
6 17 9 31 6 17 -3 21 -1 14 6 -6 6 -25 10 -42 10 -33 0 -33 0 12 21 57 27 59
51 4 51 -22 1 -55 -5 -74 -13 -18 -7 -40 -11 -48 -8 -8 3 -12 2 -9 -3 3 -5 -6
-11 -19 -14 -34 -6 -40 7 -10 21 22 10 24 14 13 32 -9 14 -24 20 -49 20 -31 0
-40 -6 -64 -40 -22 -32 -25 -43 -15 -54 6 -9 9 -21 5 -28 -4 -7 -1 -6 7 3 7 8
22 18 32 22 16 6 17 5 7 -7 -10 -12 -8 -14 11 -9 22 4 22 4 4 -11 -11 -9 -24
-16 -30 -16 -5 0 -7 -2 -4 -5 3 -3 18 -1 34 6 16 6 63 12 104 14 64 3 70 2 43
-7 -18 -6 -33 -15 -33 -20 0 -22 -91 -199 -105 -204 -8 -3 -13 -10 -10 -15 8
-12 -29 -29 -67 -30 -18 0 -27 -3 -20 -6 10 -4 9 -9 -4 -24 -13 -15 -14 -19
-3 -19 8 -1 1 -12 -17 -28 -17 -15 -39 -40 -49 -55 -25 -38 -30 -27 -12 25 9
24 24 74 33 113 15 57 19 65 25 45 3 -14 6 22 5 80 -1 58 -5 111 -10 119 -6
10 -5 12 2 7 7 -4 12 -1 12 8 0 9 -5 15 -12 13 -6 -1 -14 6 -16 17 -2 10 0 16
6 12 5 -3 10 4 11 17 3 87 17 112 55 97 52 -20 130 -12 172 16 21 15 43 32 49
40 5 7 24 16 40 19 l30 6 -32 -15 c-17 -8 -36 -23 -42 -34 -21 -39 64 -81 99
-50 12 11 12 10 1 -5 -8 -9 -11 -20 -7 -24 6 -7 25 2 94 43 24 14 52 26 62 27
10 1 16 5 13 11 -4 5 0 7 8 4 8 -3 23 0 33 8 17 12 17 13 -5 18 -13 3 -46 8
-72 11 -29 4 -50 12 -54 22 -3 8 -13 13 -24 10 -12 -3 -17 -1 -12 6 4 6 1 8
-8 5 -8 -3 -27 1 -44 8 -16 7 -24 13 -17 14 7 0 23 -5 35 -11 17 -8 16 -5 -6
16 -28 25 -28 25 -16 83 13 56 38 88 91 118 10 5 15 13 12 17 -4 4 -2 7 4 7 7
0 12 7 12 16 0 8 4 13 9 10 29 -18 6 106 -33 182 -21 40 -20 58 2 80 9 9 16
28 16 40 -2 30 40 74 63 65 11 -4 14 -3 9 5 -5 8 0 12 13 12 12 0 21 5 21 11
0 5 4 7 10 4 15 -9 50 14 60 40 12 33 77 42 155 21 32 -8 63 -12 69 -9 6 3 8
3 4 -2 -4 -4 -2 -17 5 -29 6 -11 17 -36 24 -55 10 -31 10 -36 -10 -51 -20 -17
-21 -18 -3 -64 10 -25 22 -49 28 -53 8 -4 9 0 4 13 -10 23 -10 31 0 63 6 21 5
22 -15 12 -12 -7 -21 -8 -21 -2 0 5 9 13 21 16 22 7 22 18 -1 107 -31 112
-174 175 -305 134z m-1068 -588 c-3 -8 -6 -5 -6 6 -1 11 2 17 5 13 3 -3 4 -12
1 -19z m40 -10 c-3 -8 -6 -5 -6 6 -1 11 2 17 5 13 3 -3 4 -12 1 -19z m-50 -40
c-3 -7 -5 -2 -5 12 0 14 2 19 5 13 2 -7 2 -19 0 -25z m233 20 c0 -7 -5 -20
-10 -28 -8 -11 -9 -9 -8 13 2 26 18 40 18 15z m207 -35 c-3 -10 -5 -2 -5 17 0
19 2 27 5 18 2 -10 2 -26 0 -35z m40 -15 c-2 -13 -4 -5 -4 17 -1 22 1 32 4 23
2 -10 2 -28 0 -40z m80 -5 c-3 -10 -5 -2 -5 17 0 19 2 27 5 18 2 -10 2 -26 0
-35z m80 5 c-3 -8 -6 -5 -6 6 -1 11 2 17 5 13 3 -3 4 -12 1 -19z m176 -162 c7
3 3 -2 -7 -10 -27 -22 -39 -20 -24 4 7 11 14 16 16 10 2 -6 9 -8 15 -4z m-263
-186 c-6 -11 -13 -20 -16 -20 -2 0 0 9 6 20 6 11 13 20 16 20 2 0 0 -9 -6 -20z
m323 -223 c3 -8 -1 -14 -8 -14 -7 0 -11 6 -8 14 3 7 6 13 8 13 2 0 5 -6 8 -13z
m18 -85 c-7 -2 -18 1 -23 6 -8 8 -4 9 13 5 13 -4 18 -8 10 -11z m-236 -21 c-2
-11 -11 -32 -20 -48 -15 -26 -15 -26 -9 -3 16 59 38 98 29 51z m-98 -55 c-3
-8 -1 -16 6 -19 16 -5 -4 -83 -22 -79 -7 1 -10 -2 -6 -8 3 -6 12 -7 18 -3 7 4
1 -7 -13 -24 -14 -18 -31 -32 -38 -32 -7 -1 -11 -5 -8 -10 3 -5 -2 -11 -12
-13 -11 -3 -19 0 -19 8 0 7 4 11 9 8 4 -3 5 3 1 12 -5 15 -8 14 -24 -7 -10
-13 -25 -33 -34 -44 -16 -19 -16 -19 -2 6 9 15 27 54 41 88 14 34 40 77 58 96
34 36 54 46 45 21z m55 -63 c-6 -10 -15 -30 -21 -45 -6 -16 -15 -28 -21 -28
-6 0 1 23 16 51 14 28 28 49 30 46 3 -3 1 -13 -4 -24z"/>
<path d="M1710 1435 c7 -8 19 -15 27 -15 13 0 13 3 3 15 -7 8 -19 15 -27 15
-13 0 -13 -3 -3 -15z"/>
<path d="M1684 1399 c-3 -6 -1 -16 5 -22 9 -9 14 -8 21 3 5 8 10 18 10 23 0
11 -28 8 -36 -4z"/>
<path d="M1812 1274 c-12 -8 -22 -21 -22 -27 0 -7 4 -6 10 3 8 12 10 11 10 -7
0 -19 -6 -23 -32 -24 -28 -2 -29 -2 -8 -6 34 -6 47 -21 26 -29 -12 -5 -14 -10
-6 -20 7 -7 10 -25 8 -40 -3 -25 -8 -29 -42 -32 -71 -7 -201 43 -225 86 -8 14
-12 15 -23 4 -9 -9 -10 -17 -3 -28 10 -16 19 -21 115 -70 30 -15 58 -31 61
-36 3 -5 0 -41 -8 -80 -13 -69 -12 -106 1 -53 10 41 26 29 26 -20 0 -25 7 -57
16 -70 9 -14 13 -25 9 -25 -9 0 117 -84 127 -85 3 0 10 -3 14 -7 3 -4 -3 -5
-16 -3 -21 4 -21 3 -6 -14 9 -10 13 -21 9 -26 -5 -4 -3 -5 4 -1 14 8 57 -49
48 -64 -3 -5 -2 -10 3 -10 5 0 8 -13 7 -30 -1 -16 2 -27 6 -24 15 9 32 -71 20
-94 -14 -27 -14 -35 1 -26 8 5 9 2 5 -10 -4 -10 -7 -24 -7 -32 0 -8 -3 -13 -8
-11 -4 1 -9 -2 -10 -8 -2 -5 -9 -16 -15 -23 -14 -17 -71 -47 -63 -33 4 6 0 11
-10 11 -16 0 -16 1 2 14 18 14 17 15 -11 11 -16 -2 -33 -4 -37 -4 -5 -1 -7 -7
-5 -13 1 -7 -4 -12 -10 -11 -7 2 -13 -2 -13 -7 0 -6 9 -10 21 -10 15 0 19 -5
15 -15 -4 -12 0 -14 22 -9 22 4 24 3 10 -5 -13 -9 -15 -21 -11 -64 3 -33 1
-62 -6 -76 -10 -17 -10 -26 0 -37 6 -8 7 -14 2 -14 -6 0 -6 -13 1 -36 l11 -35
8 48 c4 26 10 87 13 136 6 84 23 121 25 55 l1 -33 8 38 c4 20 17 48 30 62 21
23 24 23 49 7 l26 -16 -22 25 c-20 22 -21 29 -12 64 6 22 9 66 5 98 -6 61 1
70 33 38 19 -19 19 -18 26 39 4 33 4 72 0 88 -5 27 -3 31 26 41 18 6 41 19 51
28 19 17 19 16 13 -37 l-5 -55 17 54 18 55 16 -25 c9 -13 33 -33 53 -44 32
-17 36 -25 38 -60 l1 -40 4 38 4 37 55 0 c72 0 112 18 157 71 83 97 91 277 16
379 -62 83 -219 95 -295 22 l-22 -20 -33 34 c-70 72 -182 84 -262 27 -61 -44
-98 -121 -106 -219 l-6 -79 -22 24 c-14 15 -23 42 -28 81 -9 79 -2 97 46 111
21 7 43 17 48 23 10 14 46 184 39 191 -2 2 -14 -2 -26 -11z m243 -267 c-8 -12
-15 -28 -14 -37 0 -8 5 -3 11 13 5 15 14 27 19 27 6 0 7 -4 4 -10 -10 -16 1
-11 16 7 12 14 12 16 0 8 -10 -5 -12 -4 -7 3 4 7 17 17 29 24 20 10 21 10 8
-5 -7 -10 -10 -17 -7 -17 4 0 4 -6 -1 -12 -4 -7 -8 -20 -10 -28 -1 -8 -5 -30
-8 -48 -6 -34 -6 -34 -28 -16 l-22 19 21 -25 c12 -14 24 -39 27 -56 3 -18 9
-45 12 -60 l7 -29 -19 26 c-10 14 -28 35 -39 48 -25 26 -38 103 -28 159 9 49
13 55 30 41 12 -9 11 -14 -1 -32z m-268 -84 c-3 -10 -5 -2 -5 17 0 19 2 27 5
18 2 -10 2 -26 0 -35z m30 0 c-3 -10 -5 -4 -5 12 0 17 2 24 5 18 2 -7 2 -21 0
-30z m310 5 c-3 -7 -5 -2 -5 12 0 14 2 19 5 13 2 -7 2 -19 0 -25z m-115 -1 c3
-15 0 -24 -8 -24 -15 0 -27 24 -18 38 10 16 22 10 26 -14z m145 -29 c-2 -13
-4 -5 -4 17 -1 22 1 32 4 23 2 -10 2 -28 0 -40z m70 -5 c-3 -10 -5 -4 -5 12 0
17 2 24 5 18 2 -7 2 -21 0 -30z m80 -5 c-3 -7 -5 -2 -5 12 0 14 2 19 5 13 2
-7 2 -19 0 -25z m-553 -73 c3 -8 1 -15 -4 -15 -6 0 -10 7 -10 15 0 8 2 15 4
15 2 0 6 -7 10 -15z"/>
<path d="M2061 964 c0 -11 3 -14 6 -6 3 7 2 16 -1 19 -3 4 -6 -2 -5 -13z"/>
<path d="M1520 951 c0 -6 4 -13 10 -16 6 -3 7 1 4 9 -7 18 -14 21 -14 7z"/>
<path d="M1601 884 c0 -11 3 -14 6 -6 3 7 2 16 -1 19 -3 4 -6 -2 -5 -13z"/>
<path d="M1458 836 c-18 -16 -35 -23 -50 -19 -18 4 -20 3 -8 -6 8 -6 49 -10
90 -9 71 2 72 2 16 5 l-58 4 23 25 c29 31 22 31 -13 0z"/>
<path d="M1563 826 c8 -11 19 -21 26 -22 6 -1 7 0 1 3 -5 2 -7 10 -4 15 5 7 2
8 -6 3 -9 -6 -12 -4 -8 7 4 9 0 15 -8 15 -12 0 -12 -3 -1 -21z"/>
<path d="M1620 823 c0 -4 5 -15 10 -23 8 -13 10 -13 10 2 0 9 -4 20 -10 23 -5
3 -10 3 -10 -2z"/>
<path d="M863 765 c0 -22 2 -30 4 -17 2 12 2 30 0 40 -3 9 -5 -1 -4 -23z"/>
<path d="M1690 790 c0 -5 5 -10 10 -10 6 0 10 5 10 10 0 6 -4 10 -10 10 -5 0
-10 -4 -10 -10z"/>
<path d="M712 735 c0 -16 2 -22 5 -12 2 9 2 23 0 30 -3 6 -5 -1 -5 -18z"/>
<path d="M691 649 c-7 -22 -11 -43 -8 -45 2 -2 9 14 16 37 7 22 11 43 8 45 -2
2 -9 -14 -16 -37z"/>
<path d="M2081 557 c-6 -35 -11 -73 -11 -85 0 -11 -4 -24 -10 -27 -5 -3 -10
-1 -10 4 0 6 -5 11 -11 11 -6 0 5 -20 25 -45 20 -24 43 -58 50 -76 13 -31 13
-30 13 34 0 37 -4 64 -8 61 -4 -2 -10 19 -12 48 -2 29 -3 18 -2 -26 3 -78 3
-79 -16 -59 -20 19 -20 22 -3 117 9 53 14 99 11 102 -3 3 -10 -24 -16 -59z"/>
<path d="M2112 590 c0 -14 2 -19 5 -12 2 6 2 18 0 25 -3 6 -5 1 -5 -13z"/>
<path d="M670 581 c0 -6 4 -13 10 -16 6 -3 7 1 4 9 -7 18 -14 21 -14 7z"/>
<path d="M954 534 c-18 -14 -18 -14 6 -3 31 14 36 19 24 19 -6 0 -19 -7 -30
-16z"/>
<path d="M631 460 c-17 -60 -20 -93 -15 -128 l7 -47 12 60 c14 66 12 86 -4 34
-8 -29 -9 -30 -10 -9 0 14 10 56 23 93 12 37 19 70 15 72 -4 3 -17 -31 -28
-75z"/>
<path d="M2223 485 c0 -27 2 -38 4 -22 2 15 2 37 0 50 -2 12 -4 0 -4 -28z"/>
<path d="M2243 430 c0 -30 2 -43 4 -27 2 15 2 39 0 55 -2 15 -4 2 -4 -28z"/>
<path d="M656 445 c-9 -26 -7 -32 5 -12 6 10 9 21 6 23 -2 3 -7 -2 -11 -11z"/>
<path d="M2161 444 c0 -11 3 -14 6 -6 3 7 2 16 -1 19 -3 4 -6 -2 -5 -13z"/>
<path d="M1890 368 c-19 -16 -26 -26 -15 -20 18 9 64 53 54 52 -2 -1 -20 -15
-39 -32z"/>
<path d="M2197 361 c-2 -11 1 -43 9 -73 7 -29 17 -73 23 -98 9 -42 10 -41 4
15 -4 33 -7 87 -6 120 1 59 1 59 -7 15 -5 -30 -8 -37 -10 -20 -1 14 -2 33 -1
43 3 23 -5 22 -12 -2z"/>
<path d="M607 255 c3 -38 8 -72 10 -75 9 -10 21 24 13 39 -5 9 -13 36 -18 61
-9 40 -10 37 -5 -25z"/>
<path d="M1927 297 c-3 -8 1 -14 8 -14 7 0 11 6 8 14 -6 16 -10 16 -16 0z"/>
<path d="M666 259 c-30 -47 -29 -66 1 -22 19 27 36 63 29 63 -1 0 -15 -19 -30
-41z"/>
<path d="M2047 271 c28 -13 82 -98 84 -131 0 -23 1 -23 8 -5 6 14 1 31 -14 55
-39 63 -40 73 -5 68 16 -3 30 -1 30 4 0 4 -17 8 -37 8 -21 0 -49 3 -63 5 -24
5 -24 5 -3 -4z"/>
<path d="M1950 237 c12 -20 27 -40 32 -44 14 -8 -23 55 -40 70 -8 6 -4 -6 8
-26z"/>
<path d="M1329 217 c7 -7 14 -8 21 -1 6 6 2 10 -12 11 -16 2 -18 -1 -9 -10z"/>
<path d="M645 181 c2 -9 0 -23 -5 -31 -8 -13 -10 -12 -10 4 0 11 -3 17 -6 13
-10 -10 48 -117 70 -129 19 -10 19 -9 -3 15 -19 21 -24 38 -25 85 -1 40 -5 59
-14 59 -7 0 -10 -7 -7 -16z"/>
<path d="M1872 175 c0 -16 2 -22 5 -12 2 9 2 23 0 30 -3 6 -5 -1 -5 -18z"/>
<path d="M2007 153 c3 -10 9 -22 13 -28 4 -5 11 -20 14 -33 7 -20 5 -21 -16
-13 -13 5 -27 10 -33 11 -26 7 -43 13 -81 30 l-41 18 -6 -56 c-8 -71 -1 -80
10 -13 l8 51 90 -55 c80 -49 95 -55 145 -55 45 0 61 5 85 26 18 16 21 20 6 11
-33 -22 -51 -11 -51 31 0 34 -1 35 -15 16 -14 -19 -14 -19 -15 1 -1 18 -3 17
-21 -8 -11 -15 -25 -25 -30 -21 -5 3 -21 28 -34 55 -25 48 -40 66 -28 32z
m130 -105 c-3 -8 -6 -5 -6 6 -1 11 2 17 5 13 3 -3 4 -12 1 -19z"/>
<path d="M2161 123 c7 -12 15 -20 18 -17 3 2 -3 12 -13 22 -17 16 -18 16 -5
-5z"/>
<path d="M1707 48 c8 -59 13 -61 13 -5 0 26 -4 47 -9 47 -5 0 -7 -19 -4 -42z"/>
</g>
</svg>
