<svg width="24" height="24" viewBox="0 0 24 24" fill="none" xmlns="http://www.w3.org/2000/svg">
<path d="M5.616 10.616C5.15533 10.616 4.771 10.4617 4.463 10.153C4.155 9.84432 4.00067 9.45999 4 8.99999V6.22999C4 5.76999 4.15433 5.38599 4.463 5.07799C4.771 4.76932 5.15533 4.61499 5.616 4.61499H18.385C18.845 4.61499 19.2293 4.76932 19.538 5.07799C19.846 5.38599 20 5.76999 20 6.22999V8.99999C20 9.45999 19.846 9.84432 19.538 10.153C19.23 10.4617 18.8457 10.616 18.385 10.616H5.616ZM5.616 9.61599H18.385C18.5383 9.61599 18.6793 9.55166 18.808 9.42299C18.936 9.29499 19 9.15399 19 8.99999V6.22999C19 6.07666 18.936 5.93599 18.808 5.80799C18.68 5.67999 18.5387 5.61599 18.384 5.61599H5.616C5.462 5.61599 5.32067 5.67999 5.192 5.80799C5.06333 5.93599 4.99933 6.07666 5 6.22999V8.99999C5 9.15332 5.064 9.29432 5.192 9.42299C5.32 9.55166 5.461 9.61599 5.615 9.61599M5.615 19.385C5.155 19.385 4.77067 19.2307 4.462 18.922C4.154 18.614 4 18.2297 4 17.769V15C4 14.54 4.15433 14.1557 4.463 13.847C4.77167 13.5383 5.156 13.3843 5.616 13.385H18.385C18.845 13.385 19.2293 13.539 19.538 13.847C19.8467 14.155 20.0007 14.5393 20 15V17.77C20 18.23 19.846 18.614 19.538 18.922C19.2293 19.2307 18.845 19.385 18.385 19.385H5.615ZM5.615 18.385H18.385C18.5383 18.385 18.6793 18.3207 18.808 18.192C18.9367 18.0633 19.0007 17.9227 19 17.77V15C19 14.8467 18.936 14.7057 18.808 14.577C18.6793 14.449 18.538 14.385 18.384 14.385H5.616C5.462 14.385 5.32067 14.449 5.192 14.577C5.06333 14.705 4.99933 14.846 5 15V17.77C5 17.9233 5.064 18.064 5.192 18.192C5.32 18.32 5.461 18.3843 5.615 18.385Z" fill="black"/>
</svg>
