<svg width="24" height="24" viewBox="0 0 24 24" fill="none" xmlns="http://www.w3.org/2000/svg">
<g clip-path="url(#clip0_23_57)">
<path d="M0.402528 6.92794C-0.385852 6.13956 0.43586 4.03974 2.23779 2.23781C4.03972 0.435881 6.13954 -0.385831 6.92797 0.402498L8.55303 2.02751L2.02754 8.5529L0.402528 6.92794Z" fill="#BED47F"/>
<path d="M1.2888 11.0594C0.108379 9.87901 1.33849 6.73482 4.03679 4.03677C6.7351 1.33872 9.87903 0.108356 11.0594 1.28877L13.4927 3.72196L3.72203 13.4926L1.2888 11.0594Z" fill="#D4FF58"/>
<path d="M10.7424 10.7443C13.4401 8.04658 14.6702 4.9029 13.49 3.72265C12.3097 2.54241 9.16603 3.77255 6.46834 6.47024C3.77065 9.16793 2.54052 12.3116 3.72076 13.4919C4.901 14.6721 8.04468 13.442 10.7424 10.7443Z" fill="#BED47F"/>
<path d="M12.5102 15.3174L7.45138 10.2585C7.40974 7.76037 10.241 7.46889 10.241 7.46889L15.5496 12.7775L12.5102 15.3174Z" fill="#D4FF58"/>
<path d="M10.6967 20.4673C9.51631 19.2869 10.7466 16.1427 13.4447 13.4446C16.1428 10.7465 19.287 9.5162 20.4674 10.6966L22.9006 13.1298L13.1299 22.9005L10.6967 20.4673Z" fill="#D4FF58"/>
<path d="M20.1484 20.1522C22.8461 17.4545 24.0762 14.3108 22.896 13.1306C21.7157 11.9503 18.572 13.1804 15.8743 15.8781C13.1767 18.5758 11.9465 21.7195 13.1268 22.8998C14.307 24.08 17.4507 22.8499 20.1484 20.1522Z" fill="#BED47F"/>
<path d="M15.4469 21.9724C14.6586 21.1841 15.4803 19.0843 17.2822 17.2823C19.0841 15.4803 21.184 14.6587 21.9723 15.447L23.5973 17.0721L17.072 23.5975L15.4469 21.9724Z" fill="#D4FF58"/>
<path d="M21.7577 21.762C23.5594 19.9604 24.3809 17.8608 23.5927 17.0726C22.8045 16.2844 20.705 17.1059 18.9033 18.9076C17.1016 20.7092 16.2801 22.8088 17.0683 23.597C17.8566 24.3852 19.9561 23.5637 21.7577 21.762Z" fill="#BED47F"/>
<path opacity="0.1" d="M11.5637 3.33977C11.558 3.31317 11.542 3.28993 11.5192 3.27515C11.4963 3.26037 11.4686 3.25526 11.442 3.26095C9.92205 3.58612 8.03632 4.75864 6.39751 6.39745C4.8466 7.94841 3.72685 9.69019 3.32532 11.1765C3.32181 11.1895 3.3209 11.2031 3.32263 11.2165C3.32436 11.2298 3.32871 11.2427 3.33542 11.2544C3.34213 11.2661 3.35108 11.2763 3.36175 11.2845C3.37242 11.2928 3.3846 11.2988 3.3976 11.3023C3.41061 11.3058 3.42418 11.3067 3.43753 11.305C3.45089 11.3033 3.46378 11.2989 3.47546 11.2922C3.48713 11.2855 3.49738 11.2766 3.5056 11.2659C3.51382 11.2552 3.51986 11.243 3.52337 11.23C3.91582 9.77721 5.01629 8.06871 6.54253 6.54247C8.15442 4.93053 10.002 3.77878 11.4848 3.46151C11.498 3.4587 11.5105 3.45332 11.5216 3.44568C11.5327 3.43805 11.5422 3.42829 11.5495 3.41699C11.5568 3.40568 11.5618 3.39305 11.5643 3.3798C11.5667 3.36655 11.5665 3.35294 11.5637 3.33977Z" fill="#171717"/>
<path opacity="0.1" d="M20.8925 12.8694C20.9059 12.8668 20.9187 12.8616 20.93 12.854C20.9414 12.8464 20.9511 12.8367 20.9587 12.8253C20.9662 12.8139 20.9714 12.8012 20.9739 12.7878C20.9765 12.7743 20.9763 12.7606 20.9735 12.7472C20.9706 12.7339 20.9651 12.7212 20.9574 12.71C20.9496 12.6988 20.9396 12.6893 20.9281 12.682C20.9165 12.6747 20.9037 12.6698 20.8902 12.6675C20.8768 12.6652 20.863 12.6657 20.8497 12.6688C19.3301 12.9939 17.4443 14.1662 15.8051 15.8053C14.3066 17.3041 13.2001 18.999 12.7693 20.4554C12.7655 20.4683 12.7643 20.4818 12.7657 20.4952C12.7671 20.5086 12.7712 20.5216 12.7776 20.5334C12.784 20.5453 12.7927 20.5557 12.8032 20.5642C12.8137 20.5727 12.8257 20.579 12.8386 20.5828C12.8481 20.5856 12.8579 20.587 12.8678 20.587C12.8899 20.587 12.9114 20.5798 12.9291 20.5666C12.9468 20.5533 12.9598 20.5347 12.9661 20.5135C13.3873 19.089 14.4749 17.4257 15.95 15.9503C17.5625 14.3383 19.4101 13.1866 20.8925 12.8694Z" fill="#171717"/>
<path opacity="0.1" d="M21.85 16.8314C20.8975 17.1409 19.7985 17.8711 18.8347 18.8349C17.8814 19.7881 17.1545 20.8772 16.84 21.823C16.8357 21.8358 16.834 21.8493 16.835 21.8628C16.836 21.8762 16.8396 21.8893 16.8456 21.9014C16.8516 21.9134 16.86 21.9242 16.8702 21.933C16.8804 21.9418 16.8922 21.9485 16.905 21.9528C16.9178 21.957 16.9313 21.9587 16.9448 21.9578C16.9582 21.9568 16.9713 21.9532 16.9834 21.9471C16.9954 21.9411 17.0062 21.9327 17.015 21.9225C17.0238 21.9123 17.0306 21.9005 17.0348 21.8877C17.3393 20.9712 18.0483 19.9113 18.9797 18.9801C19.9213 18.0385 20.9907 17.3265 21.9134 17.0268C21.9267 17.0231 21.9392 17.0167 21.95 17.008C21.9608 16.9994 21.9697 16.9886 21.9763 16.9765C21.9828 16.9643 21.9868 16.9509 21.988 16.9371C21.9893 16.9233 21.9877 16.9094 21.9834 16.8962C21.9791 16.8831 21.9722 16.8709 21.9631 16.8605C21.954 16.8501 21.9429 16.8416 21.9304 16.8356C21.9179 16.8296 21.9044 16.8262 21.8906 16.8255C21.8767 16.8249 21.8629 16.8271 21.85 16.8319L21.85 16.8314Z" fill="#171717"/>
<path d="M23.67 16.9996L22.9897 16.3193C23.606 14.8719 23.6011 13.6852 22.9731 13.0572C22.9726 13.0567 22.972 13.0563 22.9715 13.0558L20.5398 10.6241C19.9382 10.0226 18.8543 9.98588 17.4877 10.5207C16.6596 10.8447 15.7847 11.356 14.9268 12.0096L12.1787 9.2615C13.9905 6.88211 14.5491 4.63322 13.5653 3.64931C13.5648 3.64885 13.5642 3.64854 13.5637 3.64808L11.1319 1.21627C10.5305 0.614758 9.4465 0.57799 8.07978 1.11284C8.01014 1.14007 7.93999 1.16925 7.86953 1.1993L7.00034 0.329948C6.58851 -0.081831 5.85166 -0.109112 4.9256 0.253336C4.02681 0.605117 3.04649 1.28401 2.16524 2.16526C1.28399 3.04651 0.605096 4.02688 0.253315 4.92567C-0.109081 5.85179 -0.0818514 6.58858 0.329928 7.00041L1.19928 7.86971C1.16938 7.94001 1.14005 8.01017 1.11277 8.07996C0.577969 9.44662 0.614737 10.5305 1.2162 11.132L3.64831 13.5642C3.64867 13.5645 3.64893 13.565 3.64934 13.5654C3.97281 13.8889 4.43346 14.0455 4.99108 14.0455C6.12278 14.0455 7.65318 13.3993 9.2422 12.1943L11.9944 14.9468C11.3483 15.7983 10.842 16.666 10.5205 17.4877C9.98566 18.8544 10.0224 19.9383 10.6239 20.5398L13.0559 22.9717C13.0563 22.9722 13.0566 22.9727 13.057 22.9731C13.3738 23.29 13.8328 23.4483 14.3957 23.4483C14.9486 23.4483 15.602 23.2951 16.3192 22.9897L16.9993 23.67C17.2191 23.8898 17.5314 24 17.9156 24C18.2514 24 18.6422 23.9158 19.0742 23.7467C19.9729 23.3951 20.9532 22.716 21.8345 21.8347C22.7158 20.9535 23.3948 19.9732 23.7465 19.0745C24.1091 18.1483 24.0818 17.4114 23.67 16.9996ZM0.474948 6.85534C0.124294 6.50474 0.113423 5.84594 0.44418 5.00038C0.785756 4.12739 1.44845 3.17204 2.31011 2.31033C3.17177 1.44862 4.12732 0.785982 5.00031 0.444354C5.84602 0.113495 6.50472 0.124417 6.85532 0.475122L7.66867 1.28848C6.44544 1.84671 5.14569 2.78293 3.9642 3.96437C2.7827 5.14581 1.84633 6.44551 1.28835 7.66885L0.474948 6.85534ZM3.79513 13.4209L3.79472 13.42L1.36148 10.9868C0.820883 10.4466 0.800525 9.44067 1.30374 8.15457C1.3383 8.06632 1.37553 7.9774 1.41424 7.88791C1.41496 7.88632 1.41573 7.88479 1.4164 7.88314C1.95592 6.64494 2.9027 5.31565 4.10922 4.10893C5.31574 2.90221 6.64533 1.95548 7.88343 1.41596C7.88471 1.41544 7.88594 1.41483 7.88723 1.41427C7.97676 1.37534 8.06589 1.33811 8.15434 1.3035C9.4404 0.800186 10.4463 0.820596 10.9867 1.36093L13.42 3.79474C13.4203 3.79505 13.4207 3.79525 13.421 3.79556C14.3106 4.68706 13.7382 6.86462 12.0321 9.1153L10.3135 7.39665C10.3027 7.38583 10.2897 7.37756 10.2753 7.37245C10.2609 7.36735 10.2456 7.36554 10.2304 7.36716C9.72293 7.43491 9.23194 7.59415 8.78129 7.83715C7.82646 8.36051 7.33109 9.19848 7.34873 10.2605C7.34918 10.2871 7.35996 10.3125 7.37878 10.3313L9.09528 12.0478C6.85239 13.7411 4.68279 14.3072 3.79513 13.4209ZM7.55355 10.2156C7.54991 9.24299 7.9942 8.5044 8.87457 8.0197C9.28943 7.79768 9.7391 7.64801 10.2043 7.57711L14.7636 12.1364C13.7806 12.9103 12.8935 13.7989 12.1211 14.7832L7.55355 10.2156ZM13.2032 22.829C13.2029 22.8287 13.2027 22.8283 13.2024 22.828L10.7692 20.3948C10.2288 19.8545 10.2085 18.8486 10.7117 17.5625C11.0347 16.7372 11.5482 15.8634 12.2064 15.0065C12.2104 15.0022 12.214 14.9976 12.2173 14.9927C13.0163 13.9608 13.9421 13.0336 14.9727 12.2329C14.9793 12.2288 14.9853 12.2241 14.9908 12.2187C15.8527 11.5547 16.7321 11.0366 17.5624 10.7117C18.8486 10.2084 19.8544 10.2289 20.3947 10.7691L22.8279 13.2023C22.8283 13.2027 22.8288 13.203 22.8292 13.2034C23.3833 13.759 23.383 14.8326 22.8333 16.1629L22.0449 15.3745C21.6331 14.9627 20.8963 14.9355 19.9701 15.2976C19.0714 15.6493 18.0911 16.3284 17.2098 17.2096C16.3285 18.0909 15.6495 19.0711 15.2978 19.9699C14.9355 20.8961 14.9627 21.6329 15.3747 22.0448L16.1631 22.833C14.8324 23.3832 13.7588 23.3834 13.2032 22.829H13.2032ZM23.5557 18.9997C23.2141 19.8727 22.5514 20.828 21.6897 21.6897C20.828 22.5514 19.8727 23.2141 18.9997 23.5557C18.1541 23.8866 17.4953 23.8756 17.1447 23.5249L16.4137 22.794V22.7937L15.5198 21.8998C15.1691 21.5491 15.1582 20.8903 15.489 20.0448C15.8306 19.1718 16.4933 18.2165 17.355 17.3547C18.2167 16.493 19.172 15.8304 20.045 15.4888C20.8905 15.1579 21.5494 15.1688 21.9001 15.5195L23.5251 17.1446C23.8756 17.4953 23.8865 18.1541 23.5556 18.9997H23.5557Z" fill="#D4FF58"/>
</g>
<defs>
<clipPath id="clip0_23_57">
<rect width="24" height="24" fill="white"/>
</clipPath>
</defs>
</svg>
