<svg width="20" height="20" viewBox="0 0 20 20" fill="none" xmlns="http://www.w3.org/2000/svg">
<path d="M14.598 7.38023C14.6917 7.28647 14.7444 7.15931 14.7444 7.02673C14.7444 6.89415 14.6917 6.767 14.598 6.67323L13.325 5.40023C13.2789 5.35248 13.2237 5.31439 13.1627 5.28818C13.1017 5.26198 13.0361 5.24818 12.9697 5.24761C12.9033 5.24703 12.8375 5.25968 12.776 5.28482C12.7146 5.30996 12.6587 5.34709 12.6118 5.39403C12.5649 5.44098 12.5277 5.49681 12.5026 5.55825C12.4774 5.6197 12.4648 5.68554 12.4654 5.75193C12.466 5.81832 12.4797 5.88393 12.5059 5.94493C12.5322 6.00594 12.5702 6.06111 12.618 6.10723L13.89 7.38023C13.9838 7.47397 14.1109 7.52663 14.2435 7.52663C14.3761 7.52663 14.5042 7.47397 14.598 7.38023ZM7.81 13.4612C7.85642 13.5077 7.89323 13.5629 7.91833 13.6236C7.94343 13.6843 7.95632 13.7494 7.95628 13.8151C7.95623 13.8808 7.94325 13.9458 7.91806 14.0065C7.89288 14.0672 7.85599 14.1223 7.8095 14.1687C7.76301 14.2152 7.70784 14.252 7.64712 14.2771C7.58641 14.3022 7.52134 14.3151 7.45565 14.315C7.38995 14.315 7.3249 14.302 7.26423 14.2768C7.20355 14.2516 7.14842 14.2147 7.102 14.1682L5.83 12.8962C5.73611 12.8025 5.68332 12.6753 5.68322 12.5426C5.68318 12.4769 5.69607 12.4118 5.72117 12.3511C5.74627 12.2904 5.78308 12.2352 5.8295 12.1887C5.87592 12.1422 5.93105 12.1054 5.99173 12.0802C6.0524 12.055 6.11745 12.042 6.18315 12.042C6.31583 12.0419 6.44311 12.0945 6.537 12.1882L7.81 13.4612ZM17.169 2.84723C16.8941 2.57238 16.5212 2.41797 16.1325 2.41797C15.7438 2.41797 15.3709 2.57238 15.096 2.84723L14.476 3.46723L14.231 3.22323C14.0378 3.02988 13.8041 2.8818 13.5467 2.78967C13.2894 2.69753 13.0148 2.66363 12.7428 2.69041C12.4707 2.7172 12.208 2.80399 11.9736 2.94455C11.7391 3.0851 11.5388 3.27591 11.387 3.50323C10.9072 3.39907 10.4066 3.45306 9.96004 3.65711C9.51349 3.86117 9.14502 4.20433 8.90974 4.63525C8.67447 5.06617 8.58505 5.56169 8.65486 6.04767C8.72466 6.53365 8.94995 6.98396 9.297 7.33123L9.955 7.98823L7.986 9.95723L7.328 9.29923C6.98073 8.95218 6.53041 8.72689 6.04444 8.65709C5.55846 8.58728 5.06294 8.6767 4.63202 8.91198C4.2011 9.14725 3.85794 9.51573 3.65388 9.96228C3.44982 10.4088 3.39584 10.9094 3.5 11.3892C3.27327 11.5415 3.08303 11.742 2.9429 11.9765C2.80277 12.2109 2.71623 12.4734 2.68947 12.7452C2.66271 13.017 2.6964 13.2914 2.78812 13.5486C2.87984 13.8059 3.02732 14.0397 3.22 14.2332L3.465 14.4782L2.828 15.1152C2.55284 15.39 2.3981 15.7628 2.39781 16.1517C2.39753 16.5405 2.55174 16.9136 2.8265 17.1887C3.10126 17.4639 3.47408 17.6186 3.86294 17.6189C4.2518 17.6192 4.62484 17.465 4.9 17.1902L5.538 16.5522L5.782 16.7962C5.97522 16.9896 6.20893 17.1377 6.46628 17.2298C6.72363 17.3219 6.99821 17.3558 7.27024 17.329C7.54227 17.3023 7.80497 17.2155 8.03941 17.0749C8.27386 16.9344 8.4742 16.7436 8.626 16.5162C9.10579 16.6204 9.60641 16.5664 10.053 16.3623C10.4995 16.1583 10.868 15.8151 11.1033 15.3842C11.3385 14.9533 11.428 14.4578 11.3581 13.9718C11.2883 13.4858 11.0631 13.0355 10.716 12.6882L10.058 12.0312L12.027 10.0632L12.685 10.7202C13.0324 11.0668 13.4826 11.2917 13.9683 11.3612C14.454 11.4308 14.9493 11.3413 15.3799 11.1061C15.8106 10.8709 16.1536 10.5027 16.3576 10.0564C16.5617 9.61013 16.6158 9.10982 16.512 8.63023C16.612 8.56357 16.7053 8.4869 16.792 8.40023C17.1382 8.05338 17.3327 7.58332 17.3327 7.09323C17.3327 6.60314 17.1382 6.13308 16.792 5.78623L16.548 5.54223L17.168 4.92223C17.4422 4.64675 17.5961 4.2739 17.5961 3.88523C17.5961 3.49656 17.4422 3.12371 17.168 2.84823M15.84 4.83423L15.182 4.17423L15.802 3.55423C15.8453 3.51096 15.8968 3.47665 15.9534 3.45326C16.01 3.42986 16.0706 3.41785 16.1319 3.41789C16.1931 3.41794 16.2537 3.43005 16.3103 3.45353C16.3668 3.47701 16.4182 3.5114 16.4615 3.55473C16.5048 3.59807 16.5391 3.6495 16.5625 3.7061C16.5859 3.7627 16.5979 3.82335 16.5978 3.88459C16.5978 3.94583 16.5857 4.00646 16.5622 4.06302C16.5387 4.11958 16.5043 4.17096 16.461 4.21423L15.84 4.83423ZM11.32 9.35423L9.351 11.3232L8.692 10.6642L10.661 8.69623L11.32 9.35423ZM4.83 15.8442L4.193 16.4812C4.10561 16.5688 3.98703 16.618 3.86335 16.6181C3.73967 16.6182 3.62102 16.5691 3.5335 16.4817C3.44598 16.3943 3.39676 16.2758 3.39666 16.1521C3.39657 16.0284 3.44561 15.9098 3.533 15.8222L4.172 15.1852L4.83 15.8442ZM12.324 3.93023C12.4833 3.77146 12.6991 3.68231 12.924 3.68231C13.1489 3.68231 13.3647 3.77146 13.524 3.93023L16.086 6.49223C16.1891 6.59469 16.2641 6.72191 16.3038 6.86169C16.3436 7.00148 16.3468 7.14914 16.313 7.2905C16.2793 7.43186 16.2098 7.56218 16.1112 7.66895C16.0126 7.77572 15.8882 7.85536 15.75 7.90023C15.683 7.92205 15.6214 7.95776 15.5692 8.00504C15.517 8.05231 15.4754 8.11008 15.4471 8.17457C15.4188 8.23905 15.4044 8.30878 15.4049 8.37921C15.4054 8.44964 15.4208 8.51916 15.45 8.58323C15.5739 8.85456 15.5985 9.16076 15.5197 9.44841C15.4409 9.73607 15.2635 9.9869 15.0186 10.1572C14.7737 10.3274 14.4768 10.4063 14.1797 10.38C13.8826 10.3537 13.6042 10.2239 13.393 10.0132L10.003 6.62423C9.79237 6.41305 9.66258 6.13462 9.63628 5.83752C9.60997 5.54042 9.68883 5.24352 9.85908 4.99862C10.0293 4.75372 10.2802 4.57638 10.5678 4.49754C10.8555 4.4187 11.1617 4.44336 11.433 4.56723C11.4971 4.59664 11.5667 4.61215 11.6373 4.61274C11.7078 4.61333 11.7777 4.59899 11.8423 4.57065C11.9069 4.54232 11.9648 4.50064 12.0121 4.44834C12.0595 4.39605 12.0952 4.33432 12.117 4.26723C12.1583 4.14038 12.2293 4.0242 12.324 3.93023ZM4.821 10.0072C5.05972 9.76859 5.38345 9.63453 5.721 9.63453C6.05855 9.63453 6.38228 9.76859 6.621 10.0072L10.01 13.3962C10.2206 13.6074 10.3504 13.8858 10.3767 14.1829C10.403 14.48 10.3242 14.7769 10.1539 15.0218C9.98367 15.2667 9.73283 15.4441 9.44518 15.5229C9.15753 15.6018 8.85132 15.5771 8.58 15.4532C8.51593 15.424 8.4464 15.4086 8.37598 15.4081C8.30555 15.4076 8.23581 15.422 8.17133 15.4503C8.10685 15.4786 8.04908 15.5203 8.00181 15.5725C7.95453 15.6247 7.91881 15.6863 7.897 15.7532C7.85197 15.8911 7.77234 16.0151 7.66572 16.1134C7.55911 16.2117 7.42907 16.281 7.28802 16.3147C7.14698 16.3484 6.99965 16.3454 6.86011 16.3059C6.72058 16.2664 6.59349 16.1918 6.491 16.0892L3.928 13.5272C3.82541 13.4247 3.75082 13.2977 3.71135 13.1581C3.67188 13.0186 3.66885 12.8712 3.70255 12.7302C3.73626 12.5892 3.80557 12.4591 3.90387 12.3525C4.00216 12.2459 4.12616 12.1663 4.264 12.1212C4.33109 12.0994 4.39281 12.0637 4.44511 12.0163C4.4974 11.969 4.53909 11.9111 4.56742 11.8465C4.59576 11.7819 4.6101 11.7121 4.60951 11.6415C4.60892 11.571 4.59341 11.5014 4.564 11.4372C4.45543 11.2012 4.42186 10.9376 4.46781 10.6819C4.51377 10.4261 4.63704 10.1907 4.821 10.0072Z" fill="black"/>
</svg>
