<svg width="24" height="24" viewBox="0 0 24 24" fill="none" xmlns="http://www.w3.org/2000/svg">
<path d="M12 5C12.9427 5 13.866 5.17 14.77 5.51C15.6733 5.85 16.5117 6.343 17.285 6.989L18.023 6.25C18.1163 6.15667 18.231 6.10667 18.367 6.1C18.503 6.09333 18.6243 6.14333 18.731 6.25C18.8377 6.35667 18.891 6.47467 18.891 6.604C18.891 6.73333 18.8377 6.85133 18.731 6.958L17.992 7.696C18.6387 8.46933 19.135 9.31 19.481 10.218C19.827 11.126 20 12.0533 20 13C20 13.4333 19.9633 13.869 19.89 14.307C19.8167 14.745 19.707 15.174 19.561 15.594C19.501 15.7807 19.4047 15.9037 19.272 15.963C19.1393 16.0223 19.014 16.0297 18.896 15.985C18.778 15.9403 18.6813 15.8637 18.606 15.755C18.5307 15.6463 18.5177 15.528 18.567 15.4C18.7137 15.008 18.8223 14.6133 18.893 14.216C18.9643 13.8193 19 13.414 19 13C19 11.0667 18.3167 9.41667 16.95 8.05C15.5833 6.68333 13.9333 6 12 6C11.624 6 11.2197 6.03567 10.787 6.107C10.3543 6.17833 9.94633 6.287 9.563 6.433C9.43367 6.47767 9.317 6.46667 9.213 6.4C9.109 6.33333 9.035 6.241 8.991 6.123C8.947 6.005 8.94967 5.881 8.999 5.751C9.04833 5.621 9.16333 5.52333 9.344 5.458C9.77733 5.30467 10.219 5.19 10.669 5.114C11.119 5.038 11.5627 5 12 5ZM12.5 9.68V8.884C12.5 8.74267 12.452 8.624 12.356 8.528C12.26 8.432 12.1413 8.38433 12 8.385C11.9 8.385 11.8073 8.41833 11.722 8.485C11.6367 8.55167 11.578 8.63233 11.546 8.727L12.5 9.68ZM12 21C10.9007 21 9.86467 20.7913 8.892 20.374C7.91933 19.9567 7.06933 19.3847 6.342 18.658C5.61467 17.9313 5.04267 17.0813 4.626 16.108C4.20933 15.1347 4.00067 14.0987 4 13C4 11.9747 4.183 10.9963 4.549 10.065C4.915 9.13367 5.44733 8.29867 6.146 7.56L2.985 4.4C2.89167 4.30667 2.84167 4.192 2.835 4.056C2.82833 3.92 2.87833 3.79867 2.985 3.692C3.09167 3.58533 3.20967 3.532 3.339 3.532C3.46833 3.532 3.586 3.58533 3.692 3.692L20.308 20.308C20.4013 20.4013 20.4513 20.516 20.458 20.652C20.4647 20.788 20.4147 20.9093 20.308 21.016C20.2013 21.1227 20.0833 21.1757 19.954 21.175C19.8247 21.1743 19.7067 21.121 19.6 21.015L17.439 18.854C16.7283 19.5273 15.8977 20.0533 14.947 20.432C13.9963 20.8107 13.014 21 12 21ZM12 20C12.8547 20 13.689 19.8373 14.503 19.512C15.3163 19.186 16.053 18.727 16.713 18.135L6.853 8.275C6.261 8.90967 5.80433 9.631 5.483 10.439C5.16167 11.247 5.00067 12.1007 5 13C5 14.9333 5.68333 16.5833 7.05 17.95C8.41667 19.3167 10.0667 20 12 20ZM9.884 2.5C9.74267 2.5 9.624 2.452 9.528 2.356C9.432 2.26 9.384 2.141 9.384 1.999C9.384 1.857 9.432 1.73833 9.528 1.643C9.624 1.54767 9.743 1.5 9.885 1.5H14.115C14.257 1.5 14.376 1.548 14.472 1.644C14.568 1.74 14.616 1.859 14.616 2.001C14.616 2.143 14.568 2.26167 14.472 2.357C14.376 2.45233 14.2573 2.5 14.116 2.5H9.884Z" fill="black"/>
</svg>
