<svg width="24" height="24" viewBox="0 0 24 24" fill="none" xmlns="http://www.w3.org/2000/svg">
<path d="M18.25 1.793L20.3535 3.8965C20.4446 3.9908 20.495 4.1171 20.4938 4.2482C20.4927 4.3793 20.4401 4.5047 20.3474 4.59741C20.2547 4.69011 20.1293 4.7427 19.9982 4.74384C19.8671 4.74498 19.7408 4.69458 19.6465 4.6035L18.75 3.707V22H17.75V3.707L16.8535 4.6035C16.8074 4.65125 16.7522 4.68935 16.6912 4.71555C16.6302 4.74175 16.5646 4.75555 16.4982 4.75612C16.4318 4.7567 16.366 4.74405 16.3045 4.71891C16.2431 4.69377 16.1872 4.65664 16.1403 4.6097C16.0934 4.56275 16.0562 4.50692 16.0311 4.44548C16.0059 4.38403 15.9933 4.31819 15.9939 4.2518C15.9945 4.18541 16.0082 4.1198 16.0344 4.0588C16.0607 3.9978 16.0987 3.94262 16.1465 3.8965L18.25 1.793Z" fill="black"/>
<path fill-rule="evenodd" clip-rule="evenodd" d="M14.5 4.5C14.5 5.16304 14.2366 5.79893 13.7678 6.26777C13.2989 6.73661 12.663 7 12 7C11.337 7 10.7011 6.73661 10.2322 6.26777C9.76339 5.79893 9.5 5.16304 9.5 4.5C9.5 3.83696 9.76339 3.20107 10.2322 2.73223C10.7011 2.26339 11.337 2 12 2C12.663 2 13.2989 2.26339 13.7678 2.73223C14.2366 3.20107 14.5 3.83696 14.5 4.5ZM13.5 4.5C13.5 4.89782 13.342 5.27936 13.0607 5.56066C12.7794 5.84196 12.3978 6 12 6C11.6022 6 11.2206 5.84196 10.9393 5.56066C10.658 5.27936 10.5 4.89782 10.5 4.5C10.5 4.10218 10.658 3.72064 10.9393 3.43934C11.2206 3.15804 11.6022 3 12 3C12.3978 3 12.7794 3.15804 13.0607 3.43934C13.342 3.72064 13.5 4.10218 13.5 4.5ZM13.9565 22C13.5821 22 13.2212 21.8601 12.9448 21.6076C12.6684 21.3551 12.4963 21.0084 12.4625 20.6355L12.0865 16.5H11.913L11.537 20.6355C11.529 20.7253 11.5129 20.8141 11.489 20.901C11.4013 21.2171 11.2124 21.4957 10.9512 21.6942C10.6901 21.8927 10.371 22.0001 10.043 22H10C9.60218 22 9.22064 21.842 8.93934 21.5607C8.65804 21.2794 8.5 20.8978 8.5 20.5V16.1035C8.25777 15.923 8.05959 15.6899 7.92034 15.4218C7.78109 15.1537 7.70439 14.8575 7.696 14.5555L7.564 9.797C7.55603 9.51114 7.60946 9.2269 7.72068 8.96345C7.83189 8.69999 7.99831 8.46345 8.20872 8.26978C8.41912 8.07611 8.6686 7.9298 8.94035 7.84074C9.2121 7.75168 9.49978 7.72193 9.784 7.7535L11.779 7.9755C11.9263 7.9915 12.0737 7.9915 12.221 7.9755L14.151 7.7605C14.4399 7.72837 14.7323 7.75959 15.0079 7.85201C15.2835 7.94442 15.5357 8.0958 15.7468 8.2956C15.9579 8.4954 16.123 8.73882 16.2304 9.00891C16.3379 9.279 16.3852 9.56927 16.369 9.8595L16.105 14.611C16.0771 15.113 15.861 15.5861 15.5 15.936V20.5C15.5 20.8978 15.342 21.2794 15.0607 21.5607C14.7794 21.842 14.3978 22 14 22H13.9565ZM9.5 16.1035C9.5 15.9478 9.46366 15.7943 9.39387 15.6552C9.32408 15.516 9.22277 15.3951 9.098 15.302C8.97673 15.2117 8.8775 15.0951 8.80779 14.961C8.73807 14.8268 8.69968 14.6786 8.6955 14.5275L8.5635 9.7695C8.55948 9.62655 8.58617 9.4844 8.64176 9.35264C8.69735 9.22089 8.78056 9.10259 8.88576 9.00572C8.99097 8.90886 9.11572 8.83568 9.25161 8.79114C9.3875 8.74659 9.53137 8.73171 9.6735 8.7475L11.6685 8.9695C11.8885 8.994 12.111 8.994 12.3315 8.9695L14.2615 8.7545C14.406 8.73842 14.5523 8.75405 14.6901 8.80028C14.8279 8.84652 14.954 8.92225 15.0596 9.02221C15.1652 9.12216 15.2477 9.24394 15.3014 9.37905C15.3551 9.51415 15.3787 9.65934 15.3705 9.8045L15.1065 14.5555C15.0925 14.8065 14.9845 15.043 14.804 15.218C14.7078 15.3112 14.6314 15.4228 14.5791 15.5462C14.5269 15.6695 14.5 15.8021 14.5 15.936V20.5C14.5 20.6326 14.4473 20.7598 14.3536 20.8536C14.2598 20.9473 14.1326 21 14 21H13.9565C13.8317 21 13.7114 20.9533 13.6192 20.8691C13.5271 20.7849 13.4697 20.6693 13.4585 20.545L13.0825 16.4095C13.06 16.1609 12.9454 15.9296 12.7611 15.7612C12.5768 15.5928 12.3361 15.4995 12.0865 15.4995H11.913C11.6634 15.4995 11.4227 15.5928 11.2384 15.7612C11.0541 15.9296 10.9395 16.1609 10.917 16.4095L10.541 20.545C10.5298 20.6692 10.4725 20.7848 10.3805 20.869C10.2884 20.9531 10.1682 20.9999 10.0435 21H10C9.86739 21 9.74021 20.9473 9.64645 20.8536C9.55268 20.7598 9.5 20.6326 9.5 20.5V16.1035Z" fill="black"/>
</svg>
