<svg width="16" height="16" viewBox="0 0 16 16" fill="none" xmlns="http://www.w3.org/2000/svg">
<path d="M9.38599 1C9.49184 1 9.59497 1.0336 9.68051 1.09596C9.76605 1.15832 9.82959 1.24622 9.86199 1.347L10.412 3.056C10.643 3.169 10.864 3.296 11.075 3.439L12.831 3.061C12.9345 3.03889 13.0424 3.05022 13.1391 3.09335C13.2358 3.13648 13.3163 3.20919 13.369 3.301L14.755 5.7C14.8079 5.79176 14.8303 5.89795 14.819 6.00327C14.8077 6.10859 14.7632 6.20759 14.692 6.286L13.487 7.616C13.5045 7.87103 13.5045 8.12697 13.487 8.382L14.692 9.714C14.7632 9.79241 14.8077 9.89141 14.819 9.99673C14.8303 10.102 14.8079 10.2082 14.755 10.3L13.369 12.7C13.3161 12.7916 13.2356 12.8641 13.1389 12.9071C13.0422 12.95 12.9344 12.9612 12.831 12.939L11.075 12.561C10.865 12.703 10.643 12.831 10.413 12.944L9.86199 14.653C9.82959 14.7538 9.76605 14.8417 9.68051 14.904C9.59497 14.9664 9.49184 15 9.38599 15H6.61399C6.50813 15 6.405 14.9664 6.31946 14.904C6.23392 14.8417 6.17038 14.7538 6.13799 14.653L5.58899 12.945C5.35862 12.8323 5.13641 12.7037 4.92399 12.56L3.16899 12.939C3.06545 12.9611 2.95757 12.9498 2.86089 12.9066C2.7642 12.8635 2.6837 12.7908 2.63099 12.699L1.24499 10.3C1.19206 10.2082 1.16964 10.102 1.18097 9.99673C1.19229 9.89141 1.23677 9.79241 1.30799 9.714L2.51299 8.382C2.49553 8.12763 2.49553 7.87237 2.51299 7.618L1.30799 6.286C1.23677 6.20759 1.19229 6.10859 1.18097 6.00327C1.16964 5.89795 1.19206 5.79176 1.24499 5.7L2.63099 3.3C2.68385 3.20837 2.76441 3.13587 2.86108 3.09293C2.95776 3.04998 3.06556 3.0388 3.16899 3.061L4.92399 3.44C5.13599 3.297 5.35799 3.168 5.58899 3.055L6.13899 1.347C6.17127 1.24654 6.23451 1.15888 6.31965 1.09655C6.40479 1.03422 6.50747 1.00043 6.61299 1H9.38499H9.38599ZM9.01999 2H6.97999L6.41199 3.767L6.02899 3.954C5.8407 4.04613 5.65894 4.15104 5.48499 4.268L5.13099 4.508L3.31499 4.116L2.29499 5.884L3.53999 7.262L3.50999 7.686C3.49561 7.89509 3.49561 8.10491 3.50999 8.314L3.53999 8.738L2.29299 10.116L3.31399 11.884L5.12999 11.493L5.48399 11.732C5.65794 11.849 5.8397 11.9539 6.02799 12.046L6.41099 12.233L6.97999 14H9.02199L9.59199 12.232L9.97399 12.046C10.1621 11.9541 10.3435 11.8492 10.517 11.732L10.87 11.493L12.687 11.884L13.707 10.116L12.461 8.738L12.491 8.314C12.5054 8.10458 12.5054 7.89442 12.491 7.685L12.461 7.261L13.708 5.884L12.687 4.116L10.87 4.506L10.517 4.268C10.3435 4.15083 10.1621 4.04591 9.97399 3.954L9.59199 3.768L9.02099 2H9.01999ZM7.99999 5C8.79564 5 9.5587 5.31607 10.1213 5.87868C10.6839 6.44129 11 7.20435 11 8C11 8.79565 10.6839 9.55871 10.1213 10.1213C9.5587 10.6839 8.79564 11 7.99999 11C7.20434 11 6.44128 10.6839 5.87867 10.1213C5.31606 9.55871 4.99999 8.79565 4.99999 8C4.99999 7.20435 5.31606 6.44129 5.87867 5.87868C6.44128 5.31607 7.20434 5 7.99999 5ZM7.99999 6C7.46955 6 6.96085 6.21071 6.58577 6.58579C6.2107 6.96086 5.99999 7.46957 5.99999 8C5.99999 8.53043 6.2107 9.03914 6.58577 9.41421C6.96085 9.78929 7.46955 10 7.99999 10C8.53042 10 9.03913 9.78929 9.4142 9.41421C9.78927 9.03914 9.99999 8.53043 9.99999 8C9.99999 7.46957 9.78927 6.96086 9.4142 6.58579C9.03913 6.21071 8.53042 6 7.99999 6Z" fill="black"/>
</svg>
