<svg width="24" height="24" viewBox="0 0 24 24" fill="none" xmlns="http://www.w3.org/2000/svg">
<path d="M11.3333 4.33333H7.33333C7.24493 4.33333 7.16014 4.29822 7.09763 4.2357C7.03512 4.17319 7 4.08841 7 4C7 3.9116 7.03512 3.82681 7.09763 3.7643C7.16014 3.70179 7.24493 3.66667 7.33333 3.66667H11.3333C11.4217 3.66667 11.5065 3.70179 11.569 3.7643C11.6315 3.82681 11.6667 3.9116 11.6667 4C11.6667 4.08841 11.6315 4.17319 11.569 4.2357C11.5065 4.29822 11.4217 4.33333 11.3333 4.33333Z" fill="#171717"/>
<path d="M20.3333 22H3.66667C3.2248 21.9995 2.80119 21.8237 2.48874 21.5113C2.17629 21.1988 2.00053 20.7752 2 20.3333V5.33333C2.00053 4.89147 2.17629 4.46785 2.48874 4.15541C2.80119 3.84296 3.2248 3.6672 3.66667 3.66667H6C6.08841 3.66667 6.17319 3.70179 6.2357 3.7643C6.29821 3.82681 6.33333 3.9116 6.33333 4C6.33333 4.08841 6.29821 4.17319 6.2357 4.2357C6.17319 4.29822 6.08841 4.33333 6 4.33333H3.66667C3.40145 4.33333 3.1471 4.43869 2.95956 4.62623C2.77202 4.81376 2.66667 5.06812 2.66667 5.33333V20.3333C2.66667 20.5986 2.77202 20.8529 2.95956 21.0404C3.1471 21.228 3.40145 21.3333 3.66667 21.3333H20.3333C20.5986 21.3333 20.8529 21.228 21.0404 21.0404C21.228 20.8529 21.3333 20.5986 21.3333 20.3333V5.33333C21.3333 5.06812 21.228 4.81376 21.0404 4.62623C20.8529 4.43869 20.5986 4.33333 20.3333 4.33333H18C17.9116 4.33333 17.8268 4.29822 17.7643 4.2357C17.7018 4.17319 17.6667 4.08841 17.6667 4C17.6667 3.9116 17.7018 3.82681 17.7643 3.7643C17.8268 3.70179 17.9116 3.66667 18 3.66667H20.3333C20.7752 3.6672 21.1988 3.84296 21.5113 4.15541C21.8237 4.46785 21.9995 4.89147 22 5.33333V20.3333C21.9995 20.7752 21.8237 21.1988 21.5113 21.5113C21.1988 21.8237 20.7752 21.9995 20.3333 22Z" fill="#171717"/>
<path d="M16.6666 4.33333H12.6666C12.5782 4.33333 12.4934 4.29822 12.4309 4.2357C12.3684 4.17319 12.3333 4.08841 12.3333 4C12.3333 3.9116 12.3684 3.82681 12.4309 3.7643C12.4934 3.70179 12.5782 3.66667 12.6666 3.66667H16.6666C16.755 3.66667 16.8398 3.70179 16.9023 3.7643C16.9648 3.82681 16.9999 3.9116 16.9999 4C16.9999 4.08841 16.9648 4.17319 16.9023 4.2357C16.8398 4.29822 16.755 4.33333 16.6666 4.33333Z" fill="#171717"/>
<path d="M11.3333 4.33333H7.33333C7.24493 4.33333 7.16014 4.29822 7.09763 4.2357C7.03512 4.17319 7 4.08841 7 4C7 3.9116 7.03512 3.82681 7.09763 3.7643C7.16014 3.70179 7.24493 3.66667 7.33333 3.66667H11.3333C11.4217 3.66667 11.5065 3.70179 11.569 3.7643C11.6315 3.82681 11.6667 3.9116 11.6667 4C11.6667 4.08841 11.6315 4.17319 11.569 4.2357C11.5065 4.29822 11.4217 4.33333 11.3333 4.33333Z" fill="#171717"/>
<path d="M17.1133 20.6667H3.66667C3.2248 20.6661 2.80119 20.4904 2.48874 20.1779C2.17629 19.8655 2.00053 19.4419 2 19V5.33333C2.00053 4.89147 2.17629 4.46785 2.48874 4.15541C2.80119 3.84296 3.2248 3.6672 3.66667 3.66667H6C6.08841 3.66667 6.17319 3.70179 6.2357 3.7643C6.29821 3.82681 6.33333 3.9116 6.33333 4C6.33333 4.08841 6.29821 4.17319 6.2357 4.2357C6.17319 4.29822 6.08841 4.33333 6 4.33333H3.66667C3.40145 4.33333 3.1471 4.43869 2.95956 4.62623C2.77202 4.81376 2.66667 5.06812 2.66667 5.33333V19C2.66667 19.2652 2.77202 19.5196 2.95956 19.7071C3.1471 19.8946 3.40145 20 3.66667 20H17.1133C17.3785 19.9994 17.6327 19.8944 17.821 19.7077L21.041 16.4877C21.2279 16.2995 21.3329 16.0452 21.3333 15.78V5.33333C21.3333 5.06812 21.228 4.81376 21.0404 4.62623C20.8529 4.43869 20.5986 4.33333 20.3333 4.33333H18C17.9116 4.33333 17.8268 4.29822 17.7643 4.2357C17.7018 4.17319 17.6667 4.08841 17.6667 4C17.6667 3.9116 17.7018 3.82681 17.7643 3.7643C17.8268 3.70179 17.9116 3.66667 18 3.66667H20.3333C20.7752 3.6672 21.1988 3.84296 21.5113 4.15541C21.8237 4.46785 21.9995 4.89147 22 5.33333V15.78C21.999 16.2219 21.8238 16.6455 21.5123 16.959L18.2923 20.179C17.9789 20.4904 17.5552 20.6657 17.1133 20.6667Z" fill="#171717"/>
<path d="M16.6666 4.33333H12.6666C12.5782 4.33333 12.4934 4.29822 12.4309 4.2357C12.3684 4.17319 12.3333 4.08841 12.3333 4C12.3333 3.9116 12.3684 3.82681 12.4309 3.7643C12.4934 3.70179 12.5782 3.66667 12.6666 3.66667H16.6666C16.755 3.66667 16.8398 3.70179 16.9023 3.7643C16.9648 3.82681 16.9999 3.9116 16.9999 4C16.9999 4.08841 16.9648 4.17319 16.9023 4.2357C16.8398 4.29822 16.755 4.33333 16.6666 4.33333Z" fill="#171717"/>
<path d="M17.6666 20.5467C17.5782 20.5467 17.4934 20.5115 17.4309 20.449C17.3684 20.3865 17.3333 20.3017 17.3333 20.2133V17.4767C17.3337 17.0852 17.4894 16.7098 17.7662 16.433C18.0431 16.1562 18.4184 16.0004 18.8099 16H21.5466C21.635 16 21.7198 16.0351 21.7823 16.0976C21.8448 16.1601 21.8799 16.2449 21.8799 16.3333C21.8799 16.4217 21.8448 16.5065 21.7823 16.569C21.7198 16.6315 21.635 16.6667 21.5466 16.6667H18.8099C18.5952 16.6669 18.3893 16.7524 18.2375 16.9042C18.0856 17.056 18.0002 17.2619 17.9999 17.4767V20.2133C17.9999 20.3017 17.9648 20.3865 17.9023 20.449C17.8398 20.5115 17.755 20.5467 17.6666 20.5467Z" fill="#171717"/>
<path d="M11.3333 4.33333H7.33333C7.24493 4.33333 7.16014 4.29822 7.09763 4.2357C7.03512 4.17319 7 4.08841 7 4C7 3.9116 7.03512 3.82681 7.09763 3.7643C7.16014 3.70179 7.24493 3.66667 7.33333 3.66667H11.3333C11.4217 3.66667 11.5065 3.70179 11.569 3.7643C11.6315 3.82681 11.6667 3.9116 11.6667 4C11.6667 4.08841 11.6315 4.17319 11.569 4.2357C11.5065 4.29822 11.4217 4.33333 11.3333 4.33333Z" fill="#171717"/>
<path d="M22 8.33333H2V5.33333C2.00053 4.89147 2.17629 4.46785 2.48874 4.15541C2.80119 3.84296 3.2248 3.6672 3.66667 3.66667H6C6.08841 3.66667 6.17319 3.70179 6.2357 3.7643C6.29821 3.82681 6.33333 3.9116 6.33333 4C6.33333 4.08841 6.29821 4.17319 6.2357 4.2357C6.17319 4.29822 6.08841 4.33333 6 4.33333H3.66667C3.40145 4.33333 3.1471 4.43869 2.95956 4.62623C2.77202 4.81376 2.66667 5.06812 2.66667 5.33333V7.66667H21.3333V5.33333C21.3333 5.06812 21.228 4.81376 21.0404 4.62623C20.8529 4.43869 20.5986 4.33333 20.3333 4.33333H18C17.9116 4.33333 17.8268 4.29822 17.7643 4.2357C17.7018 4.17319 17.6667 4.08841 17.6667 4C17.6667 3.9116 17.7018 3.82681 17.7643 3.7643C17.8268 3.70179 17.9116 3.66667 18 3.66667H20.3333C20.7752 3.6672 21.1988 3.84296 21.5113 4.15541C21.8237 4.46785 21.9995 4.89147 22 5.33333V8.33333Z" fill="#171717"/>
<path d="M16.6666 4.33333H12.6666C12.5782 4.33333 12.4934 4.29822 12.4309 4.2357C12.3684 4.17319 12.3333 4.08841 12.3333 4C12.3333 3.9116 12.3684 3.82681 12.4309 3.7643C12.4934 3.70179 12.5782 3.66667 12.6666 3.66667H16.6666C16.755 3.66667 16.8398 3.70179 16.9023 3.7643C16.9648 3.82681 16.9999 3.9116 16.9999 4C16.9999 4.08841 16.9648 4.17319 16.9023 4.2357C16.8398 4.29822 16.755 4.33333 16.6666 4.33333Z" fill="#171717"/>
<path d="M12 6C11.7348 6 11.4804 5.89464 11.2929 5.70711C11.1054 5.51957 11 5.26522 11 5V3C11 2.73478 11.1054 2.48043 11.2929 2.29289C11.4804 2.10536 11.7348 2 12 2C12.2652 2 12.5196 2.10536 12.7071 2.29289C12.8946 2.48043 13 2.73478 13 3V5C13 5.26522 12.8946 5.51957 12.7071 5.70711C12.5196 5.89464 12.2652 6 12 6ZM12 2.66667C11.9116 2.66667 11.8268 2.70179 11.7643 2.7643C11.7018 2.82681 11.6667 2.91159 11.6667 3V5C11.6667 5.08841 11.7018 5.17319 11.7643 5.2357C11.8268 5.29821 11.9116 5.33333 12 5.33333C12.0884 5.33333 12.1732 5.29821 12.2357 5.2357C12.2982 5.17319 12.3333 5.08841 12.3333 5V3C12.3333 2.91159 12.2982 2.82681 12.2357 2.7643C12.1732 2.70179 12.0884 2.66667 12 2.66667Z" fill="#171717"/>
<path d="M6.66675 6C6.40153 6 6.14718 5.89464 5.95964 5.70711C5.7721 5.51957 5.66675 5.26522 5.66675 5V3C5.66675 2.73478 5.7721 2.48043 5.95964 2.29289C6.14718 2.10536 6.40153 2 6.66675 2C6.93196 2 7.18632 2.10536 7.37385 2.29289C7.56139 2.48043 7.66675 2.73478 7.66675 3V5C7.66675 5.26522 7.56139 5.51957 7.37385 5.70711C7.18632 5.89464 6.93196 6 6.66675 6ZM6.66675 2.66667C6.57834 2.66667 6.49356 2.70179 6.43105 2.7643C6.36853 2.82681 6.33341 2.91159 6.33341 3V5C6.33341 5.08841 6.36853 5.17319 6.43105 5.2357C6.49356 5.29821 6.57834 5.33333 6.66675 5.33333C6.75515 5.33333 6.83994 5.29821 6.90245 5.2357C6.96496 5.17319 7.00008 5.08841 7.00008 5V3C7.00008 2.91159 6.96496 2.82681 6.90245 2.7643C6.83994 2.70179 6.75515 2.66667 6.66675 2.66667Z" fill="#171717"/>
<path d="M17.3333 6C17.068 6 16.8137 5.89464 16.6261 5.70711C16.4386 5.51957 16.3333 5.26522 16.3333 5V3C16.3333 2.73478 16.4386 2.48043 16.6261 2.29289C16.8137 2.10536 17.068 2 17.3333 2C17.5985 2 17.8528 2.10536 18.0404 2.29289C18.2279 2.48043 18.3333 2.73478 18.3333 3V5C18.3333 5.26522 18.2279 5.51957 18.0404 5.70711C17.8528 5.89464 17.5985 6 17.3333 6ZM17.3333 2.66667C17.2448 2.66667 17.1601 2.70179 17.0975 2.7643C17.035 2.82681 16.9999 2.91159 16.9999 3V5C16.9999 5.08841 17.035 5.17319 17.0975 5.2357C17.1601 5.29821 17.2448 5.33333 17.3333 5.33333C17.4217 5.33333 17.5064 5.29821 17.569 5.2357C17.6315 5.17319 17.6666 5.08841 17.6666 5V3C17.6666 2.91159 17.6315 2.82681 17.569 2.7643C17.5064 2.70179 17.4217 2.66667 17.3333 2.66667Z" fill="#171717"/>
<path d="M9.00008 17.3333H7.66675C7.40153 17.3333 7.14718 17.228 6.95964 17.0404C6.7721 16.8529 6.66675 16.5986 6.66675 16.3333V11.6667C6.66675 11.4015 6.7721 11.1471 6.95964 10.9596C7.14718 10.772 7.40153 10.6667 7.66675 10.6667H9.00008C9.2653 10.6667 9.51965 10.772 9.70719 10.9596C9.89472 11.1471 10.0001 11.4015 10.0001 11.6667V16.3333C10.0001 16.5986 9.89472 16.8529 9.70719 17.0404C9.51965 17.228 9.2653 17.3333 9.00008 17.3333ZM7.66675 11.3333C7.57834 11.3333 7.49356 11.3685 7.43105 11.431C7.36853 11.4935 7.33341 11.5783 7.33341 11.6667V16.3333C7.33341 16.4217 7.36853 16.5065 7.43105 16.569C7.49356 16.6315 7.57834 16.6667 7.66675 16.6667H9.00008C9.08849 16.6667 9.17327 16.6315 9.23578 16.569C9.2983 16.5065 9.33341 16.4217 9.33341 16.3333V11.6667C9.33341 11.5783 9.2983 11.4935 9.23578 11.431C9.17327 11.3685 9.08849 11.3333 9.00008 11.3333H7.66675Z" fill="#171717"/>
<path d="M16.3333 17.3333H15C14.7348 17.3333 14.4804 17.228 14.2929 17.0404C14.1054 16.8529 14 16.5986 14 16.3333V11.6667C14 11.4015 14.1054 11.1471 14.2929 10.9596C14.4804 10.772 14.7348 10.6667 15 10.6667H16.3333C16.5985 10.6667 16.8529 10.772 17.0404 10.9596C17.228 11.1471 17.3333 11.4015 17.3333 11.6667V16.3333C17.3333 16.5986 17.228 16.8529 17.0404 17.0404C16.8529 17.228 16.5985 17.3333 16.3333 17.3333ZM15 11.3333C14.9116 11.3333 14.8268 11.3685 14.7643 11.431C14.7018 11.4935 14.6667 11.5783 14.6667 11.6667V16.3333C14.6667 16.4217 14.7018 16.5065 14.7643 16.569C14.8268 16.6315 14.9116 16.6667 15 16.6667H16.3333C16.4217 16.6667 16.5065 16.6315 16.569 16.569C16.6315 16.5065 16.6667 16.4217 16.6667 16.3333V11.6667C16.6667 11.5783 16.6315 11.4935 16.569 11.431C16.5065 11.3685 16.4217 11.3333 16.3333 11.3333H15Z" fill="#171717"/>
<path d="M7 15.6667H6C5.73478 15.6667 5.48043 15.5613 5.29289 15.3738C5.10536 15.1862 5 14.9319 5 14.6667V13.3333C5 13.0681 5.10536 12.8138 5.29289 12.6262C5.48043 12.4387 5.73478 12.3333 6 12.3333H7C7.08841 12.3333 7.17319 12.3685 7.2357 12.431C7.29821 12.4935 7.33333 12.5783 7.33333 12.6667V15.3333C7.33333 15.4217 7.29821 15.5065 7.2357 15.569C7.17319 15.6315 7.08841 15.6667 7 15.6667ZM6 13C5.91159 13 5.82681 13.0351 5.7643 13.0976C5.70179 13.1601 5.66667 13.2449 5.66667 13.3333V14.6667C5.66667 14.7551 5.70179 14.8399 5.7643 14.9024C5.82681 14.9649 5.91159 15 6 15H6.66667V13H6Z" fill="#171717"/>
<path d="M18.0001 15.6667H17.0001C16.9117 15.6667 16.8269 15.6315 16.7644 15.569C16.7019 15.5065 16.6667 15.4217 16.6667 15.3333V12.6667C16.6667 12.5783 16.7019 12.4935 16.7644 12.431C16.8269 12.3685 16.9117 12.3333 17.0001 12.3333H18.0001C18.2653 12.3333 18.5197 12.4387 18.7072 12.6262C18.8947 12.8138 19.0001 13.0681 19.0001 13.3333V14.6667C19.0001 14.9319 18.8947 15.1862 18.7072 15.3738C18.5197 15.5613 18.2653 15.6667 18.0001 15.6667ZM17.3334 15H18.0001C18.0885 15 18.1733 14.9649 18.2358 14.9024C18.2983 14.8399 18.3334 14.7551 18.3334 14.6667V13.3333C18.3334 13.2449 18.2983 13.1601 18.2358 13.0976C18.1733 13.0351 18.0885 13 18.0001 13H17.3334V15Z" fill="#171717"/>
<path d="M14.3333 15.3333H9.66659C9.57818 15.3333 9.49339 15.2982 9.43088 15.2357C9.36837 15.1732 9.33325 15.0884 9.33325 15V13C9.33325 12.9116 9.36837 12.8268 9.43088 12.7643C9.49339 12.7018 9.57818 12.6667 9.66659 12.6667H14.3333C14.4217 12.6667 14.5064 12.7018 14.569 12.7643C14.6315 12.8268 14.6666 12.9116 14.6666 13V15C14.6666 15.0884 14.6315 15.1732 14.569 15.2357C14.5064 15.2982 14.4217 15.3333 14.3333 15.3333ZM9.99992 14.6667H13.9999V13.3333H9.99992V14.6667Z" fill="#171717"/>
</svg>
