<svg width="24" height="24" viewBox="0 0 24 24" fill="none" xmlns="http://www.w3.org/2000/svg">
<path d="M6.683 4.99999C5.318 5.06199 4.475 5.25399 3.879 5.85099C3 6.73099 3 8.14799 3 10.981V15.99C3 18.823 3 20.24 3.879 21.12C4.757 22 6.172 22 9 22H15C17.828 22 19.243 22 20.121 21.12C20.999 20.24 21 18.823 21 15.99V10.98C21 8.14699 21 6.72999 20.121 5.84999C19.525 5.25299 18.681 5.05999 17.317 4.99899" stroke="black" stroke-width="1.5" stroke-linecap="round" stroke-linejoin="round"/>
<path d="M10 18H14M11.5 10L12.5 7M7.025 6.54C6.545 4.66 6.305 3.72 6.695 3.03C6.7995 2.84621 6.93249 2.68014 7.089 2.538C7.678 2 8.669 2 10.65 2H13.35C15.331 2 16.322 2 16.911 2.538C17.068 2.681 17.201 2.848 17.305 3.031C17.695 3.721 17.455 4.661 16.975 6.541C16.591 8.039 16.4 8.788 15.888 9.281C15.748 9.41633 15.5943 9.534 15.427 9.634C14.813 10 14.023 10 12.444 10H11.556C9.976 10 9.186 10 8.573 9.634C8.40704 9.53417 8.25275 9.4161 8.113 9.282C7.6 8.788 7.408 8.039 7.025 6.54Z" stroke="black" stroke-width="1.5" stroke-linecap="round" stroke-linejoin="round"/>
</svg>
